<?xml version="1.0" encoding="utf-8"?>
<!-- Generator: Adobe Illustrator 16.0.0, SVG Export Plug-In . SVG Version: 6.00 Build 0)  -->
<!DOCTYPE svg PUBLIC "-//W3C//DTD SVG 1.1//EN" "http://www.w3.org/Graphics/SVG/1.1/DTD/svg11.dtd">
<svg version="1.1" id="Layer_1" xmlns="http://www.w3.org/2000/svg" xmlns:xlink="http://www.w3.org/1999/xlink" x="0px" y="0px"
	 width="85px" height="16.3px" viewBox="0 0 85 16.3" enable-background="new 0 0 85 16.3" xml:space="preserve">
<g>
	<path fill="#F06C6F" d="M12.012,7.033l-9.145,2.92C2.51,10.066,2.124,9.867,2.009,9.509L0.19,3.81
		C0.077,3.453,0.276,3.066,0.634,2.951l9.145-2.918c0.357-0.114,0.744,0.085,0.858,0.444l1.819,5.699
		C12.569,6.533,12.371,6.919,12.012,7.033"/>
	<path fill="#EF5046" d="M12.031,7.089l-9.144,2.92c-0.358,0.115-0.745-0.086-0.859-0.444L0.21,3.867
		C0.096,3.509,0.295,3.123,0.653,3.007l9.144-2.919c0.358-0.114,0.745,0.086,0.858,0.444l1.819,5.7
		C12.589,6.589,12.389,6.976,12.031,7.089"/>
	<path fill="#9285BD" d="M12.237,9.21l-9.484,1.479c-0.372,0.057-0.722-0.199-0.78-0.57L1.052,4.207
		C0.994,3.835,1.25,3.484,1.622,3.427l9.484-1.478c0.372-0.059,0.724,0.198,0.781,0.569l0.92,5.911
		C12.866,8.801,12.608,9.154,12.237,9.21"/>
	<path fill="#6B50A0" d="M12.243,9.258l-9.483,1.478c-0.372,0.057-0.723-0.199-0.78-0.57L1.058,4.254
		C1,3.882,1.256,3.532,1.628,3.474l9.484-1.478c0.371-0.058,0.723,0.198,0.78,0.569l0.92,5.912
		C12.871,8.849,12.614,9.201,12.243,9.258"/>
	<path fill="#46C5EE" d="M12.096,11.386H2.498c-0.376,0-0.684-0.308-0.684-0.684V4.72c0-0.376,0.307-0.684,0.684-0.684h9.598
		c0.376,0,0.683,0.308,0.683,0.684v5.982C12.779,11.079,12.473,11.386,12.096,11.386"/>
	<path fill="#2BAFE4" d="M12.096,11.439H2.498c-0.376,0-0.684-0.308-0.684-0.684V4.773c0-0.376,0.307-0.684,0.684-0.684h9.598
		c0.376,0,0.683,0.308,0.683,0.684v5.982C12.779,11.131,12.473,11.439,12.096,11.439"/>
	<path fill="#0C8EAF" d="M5.369,5.509c-0.026-0.271-0.25-0.476-0.522-0.476h-0.6v0.53h1.127L5.369,5.509z"/>
	<rect x="2.948" y="5.735" fill="#0C8EAF" width="0.599" height="1.022"/>
	<rect x="4.776" y="5.735" fill="#0C8EAF" width="0.599" height="1.022"/>
	<path fill="#0C8EAF" d="M2.948,6.929l0.005,0.055C2.979,7.255,3.204,7.46,3.475,7.46h0.6V6.929H2.948z"/>
	<path fill="#0C8EAF" d="M3.475,5.033c-0.271,0-0.497,0.205-0.522,0.477L2.948,5.564h1.127V5.033H3.475z"/>
	<path fill="#0C8EAF" d="M4.247,6.929V7.46h0.601c0.271,0,0.496-0.205,0.522-0.477l0.005-0.055H4.247z"/>
	<rect x="3.714" y="5.735" fill="#0C8EAF" width="0.894" height="1.022"/>
	<path fill="#FFC713" d="M5.338,5.479c-0.026-0.272-0.25-0.477-0.522-0.477H4.215v0.53h1.128L5.338,5.479z"/>
	<rect x="2.917" y="5.705" fill="#FFC713" width="0.598" height="1.023"/>
	<rect x="4.746" y="5.705" fill="#FFC713" width="0.598" height="1.023"/>
	<path fill="#FFC713" d="M2.917,6.899l0.004,0.054c0.026,0.271,0.251,0.477,0.523,0.477h0.6v-0.53H2.917z"/>
	<path fill="#FFC713" d="M3.444,5.002c-0.271,0-0.496,0.204-0.523,0.477L2.917,5.533h1.128v-0.53H3.444z"/>
	<path fill="#FFC713" d="M4.216,6.899v0.53h0.6c0.272,0,0.497-0.205,0.523-0.477l0.004-0.054H4.216z"/>
	<rect x="3.683" y="5.705" fill="#FFC713" width="0.894" height="1.023"/>
	<path fill="#D3802B" d="M0,15.63C0,16,0.3,16.298,0.67,16.298h12.604c0.37,0,0.67-0.299,0.67-0.668V6.98
		c0-0.369-0.3-0.67-0.67-0.67H0.665C0.297,6.31,0,6.609,0,6.975V15.63z"/>
	<path fill="#FFFFFF" d="M7.467,10.602C7.375,9.994,7.189,9.407,6.918,8.875c-0.068-0.135-0.15-0.27-0.183-0.3
		C6.654,8.499,6.482,8.486,6.379,8.55C6.346,8.572,6.311,8.611,6.285,8.664C6.25,8.735,6.249,8.833,6.279,8.906
		c0.027,0.065,0.064,0.152,0.105,0.235c0.38,0.774,0.533,1.419,0.533,2.249c0,0.858-0.174,1.566-0.57,2.334
		c-0.099,0.189-0.114,0.238-0.102,0.307c0.02,0.105,0.114,0.216,0.207,0.242c0.04,0.012,0.087,0.018,0.104,0.012
		c0.017-0.004,0.044-0.008,0.062-0.008c0.085,0,0.187-0.14,0.35-0.477c0.269-0.557,0.437-1.125,0.521-1.762
		C7.536,11.694,7.524,10.98,7.467,10.602"/>
	<path fill="#FFFFFF" d="M6.062,10.064C5.963,9.763,5.71,9.232,5.628,9.158C5.51,9.05,5.286,9.07,5.196,9.197
		C5.102,9.332,5.109,9.382,5.271,9.714c0.243,0.494,0.339,0.834,0.39,1.371c0.063,0.652-0.064,1.318-0.368,1.938
		c-0.072,0.148-0.139,0.293-0.149,0.325c-0.041,0.131,0.062,0.306,0.204,0.347c0.211,0.061,0.36-0.093,0.573-0.594
		C6.336,12.125,6.386,11.058,6.062,10.064"/>
	<path fill="#FFFFFF" d="M4.313,9.663c-0.096,0-0.125,0.013-0.193,0.076c-0.14,0.132-0.136,0.198,0.029,0.53
		c0.375,0.76,0.37,1.506-0.012,2.281c-0.104,0.211-0.127,0.273-0.114,0.332c0.021,0.094,0.097,0.186,0.184,0.226
		c0.04,0.018,0.105,0.027,0.147,0.022c0.137-0.02,0.204-0.092,0.339-0.367c0.238-0.481,0.323-0.84,0.324-1.361
		c0.001-0.507-0.09-0.904-0.313-1.359C4.56,9.744,4.476,9.663,4.313,9.663"/>
	<path fill="#FFFFFF" d="M3.209,10.207c-0.163,0.031-0.285,0.211-0.24,0.355c0.009,0.035,0.055,0.125,0.102,0.199
		c0.134,0.223,0.166,0.34,0.166,0.629s-0.032,0.408-0.166,0.628c-0.105,0.173-0.126,0.245-0.1,0.337
		c0.023,0.084,0.102,0.178,0.172,0.206c0.152,0.063,0.296-0.008,0.426-0.208c0.368-0.569,0.368-1.338,0.001-1.912
		C3.442,10.244,3.348,10.181,3.209,10.207"/>
	<path fill="#F08B38" d="M14.545,12.264c0,0.331-0.269,0.6-0.601,0.6h-3.344c-0.879,0-1.573-0.704-1.573-1.583v0.016
		c0-0.879,0.694-1.6,1.573-1.6h3.344c0.332,0,0.601,0.27,0.601,0.601V12.264z"/>
	<path fill="#AE4D32" d="M10.601,12.933c-0.879,0-1.573-0.704-1.573-1.583v0.017c0-0.879,0.694-1.6,1.573-1.6h3.344
		c0.332,0,0.601,0.268,0.601,0.6v1.967c0,0.331-0.269,0.6-0.601,0.6"/>
	<path fill="#CC7329" d="M14.545,12.298c0,0.332-0.269,0.6-0.601,0.6h-3.344c-0.879,0-1.573-0.703-1.573-1.582v0.016
		c0-0.879,0.694-1.6,1.573-1.6h3.344c0.332,0,0.601,0.268,0.601,0.6V12.298z"/>
	<path fill="#AE4D32" d="M11.43,10.625c0.401,0.401,0.401,1.051,0,1.451c-0.4,0.399-1.049,0.399-1.45,0
		c-0.399-0.4-0.399-1.05,0-1.451C10.381,10.224,11.03,10.224,11.43,10.625"/>
	<path fill="#FFC713" d="M11.407,10.572c0.405,0.405,0.405,1.062,0,1.466c-0.404,0.404-1.06,0.404-1.465,0
		c-0.404-0.404-0.404-1.061,0-1.466C10.347,10.167,11.003,10.167,11.407,10.572"/>
	<g opacity="0.52">
		<g>
			<defs>
				<rect id="SVGID_1_" x="9.917" y="10.542" width="1.386" height="1.393"/>
			</defs>
			<clipPath id="SVGID_2_">
				<use xlink:href="#SVGID_1_"  overflow="visible"/>
			</clipPath>
			<path clip-path="url(#SVGID_2_)" fill="#FFC713" d="M11.216,10.769c0.297,0.297-0.244,0.239-0.541,0.536
				c-0.297,0.298-0.238,0.837-0.535,0.54c-0.297-0.297-0.297-0.779,0-1.076C10.437,10.472,10.918,10.472,11.216,10.769"/>
		</g>
	</g>
	<path fill="#FFFFFF" d="M84.369,14.589c-0.344,0.346-0.698,0.582-1.105,0.608c-1.24,0.077-2.14-1.937-2.846-4.498
		c3.063-2.717,3.948-4.612,4.051-5.247c0.246-1.522-1.021-1.902-1.477-1.036c-0.457,0.87-1.775,4.206-4.162,6.318
		c0.33-1.378,0.957-3.983,1.232-5.128c0.107-0.445,0.117-1.1-0.361-1.401c-0.86-0.54-1.645-0.048-1.777,0.576
		c-0.327,1.54-0.826,4.431-1.113,6.57c-0.036,0.271-0.071,0.528-0.105,0.782c-0.232,0.023-0.471,0.136-0.582,0.332
		c-1.041,1.838-2.457,2.904-3.684,2.503c-0.622-0.204-1.078-0.731-1.346-1.472c1.166-0.336,2.407-1.127,3.459-2.289
		c1.916-2.127,2.61-5.301,1.146-6.615c-0.435-0.391-0.995-0.59-1.622-0.619c-0.033-0.002-0.111,0.002-0.189,0.011
		c-1.98,0.126-3.84,2.021-4.742,4.778c-0.379,1.156-0.523,2.309-0.461,3.354c-0.479,1.717-1.269,2.959-1.896,2.923
		c-0.651-0.036-0.612-1.562-0.341-3.217c0.205-1.251,1.053-4.478,1.433-5.936c0.139-0.53,0.017-1.353-0.813-1.804
		c-0.059-0.033-0.115-0.053-0.172-0.072l0.002-0.004c-0.009-0.002-0.02-0.004-0.027-0.006c-0.033-0.011-0.066-0.018-0.101-0.025
		c-0.433-0.123-0.98-0.119-1.655,0.098c-1.451,0.469-2.65,2.361-3.42,4.209c-0.629,1.51-1.098,2.787-1.422,3.848
		c-0.238,0.021-0.484,0.135-0.598,0.336c-1.041,1.838-2.459,2.904-3.686,2.503c-0.621-0.204-1.077-0.731-1.346-1.472
		c1.167-0.336,2.408-1.127,3.459-2.289c1.918-2.127,2.611-5.301,1.146-6.615c-0.435-0.391-0.994-0.59-1.621-0.619
		c-0.035-0.002-0.113,0.002-0.191,0.011c-1.603,0.102-3.118,1.376-4.117,3.315V7.289c0,0.002-0.003,0.012-0.004,0.018
		C53.08,7.76,52.865,8.24,52.693,8.763c-0.395,1.209-0.537,2.414-0.451,3.494c-0.482,1.654-1.249,2.836-1.861,2.803
		c-0.65-0.037-0.613-1.563-0.342-3.217c0.206-1.252,1.139-4.852,1.523-6.309c0.113-0.419,0.193-0.987-0.637-1.439
		c-0.631-0.346-1.514,0.021-1.672,0.724c-0.248,1.101-0.625,2.939-0.887,4.667c-0.174,0.845-0.373,1.768-0.551,2.455
		c-0.473,1.822-1.303,3.154-1.954,3.119c-0.651-0.037-0.612-1.563-0.341-3.217c0.205-1.252,1.137-4.852,1.523-6.309
		c0.111-0.419,0.191-0.987-0.638-1.439c-0.631-0.346-1.514,0.021-1.671,0.724c-0.248,1.101-0.627,2.939-0.888,4.666
		c-0.173,0.845-0.373,1.769-0.551,2.456c-0.472,1.822-1.302,3.154-1.953,3.119c-0.651-0.037-0.613-1.563-0.341-3.217
		c0.206-1.252,1.137-4.852,1.524-6.309c0.111-0.419,0.191-0.987-0.638-1.439c-0.631-0.346-1.514,0.021-1.672,0.724
		c-0.251,1.117-0.636,2.993-0.899,4.743c-0.083,0.305-0.625,2.071-2.168,3.707c-0.116,0.124-0.228,0.225-0.341,0.334
		c0.338-0.588,0.632-1.252,0.857-1.984c0.397-1.303,0.593-2.873,0.489-4.026c-0.046-0.524-0.363-0.858-0.853-0.771
		c0.049-1.092-0.334-1.892-0.895-2.385c-0.168-0.146-0.478-0.26-0.478-0.26c-1.831-0.654-4.14,1.816-5.119,5.02
		c-0.396,1.297-0.511,2.521-0.396,3.578c-0.271,1.143-0.893,2.275-1.569,2.307c-0.871-0.003-1.806-2.383-2.333-5.572
		c4.12-3.35,5.125-6.658,5.121-7.484c-0.006-1.56-1.382-1.831-1.725-1.047c-0.521,1.192-1.918,5.652-5.428,8.649
		c0.412-1.538,1.456-5.427,1.891-7.039c0.152-0.565,0.062-1.537-0.941-1.927c-0.775-0.301-1.285,0.021-1.52,0.818
		c-0.611,2.089-1.962,9.982-2.29,13.52c-0.068,0.731,0.131,1.147,0.533,1.265c0.39,0.113,0.766-0.027,0.886-0.542l0.431-1.946
		c0.213-0.899,0.43-1.809,0.605-2.539c0.097-0.061,0.197-0.122,0.292-0.184c1.058,3.306,2.643,5.277,3.996,5.23l-0.001,0.003
		c0.012-0.001,1.462,0.099,2.333-2.224c0.341,0.976,0.938,1.701,1.738,2.047c0.289,0.125,0.59,0.174,0.896,0.168
		c0.001,0,0.003,0,0.003,0c0.22-0.005,0.44-0.037,0.661-0.103c0.804-0.198,1.987-0.729,3.424-2.099
		c0.726-0.693,1.248-1.389,1.629-2.029c-0.165,3.011,0.471,4.306,1.778,4.236c1.254-0.066,2.157-1.213,2.729-2.796
		c0.095,1.984,0.714,2.853,1.79,2.796c1.255-0.066,2.157-1.213,2.727-2.796c0.096,1.984,0.717,2.853,1.793,2.796
		c1.199-0.064,2.077-1.119,2.65-2.596c0.381,1.189,1.113,2.086,2.174,2.432c1.759,0.576,3.924-0.369,5.186-2.48
		c-0.154,0.482-0.169,1.281-0.133,1.672c0.041,0.445,0.297,0.799,0.617,0.918c0.091,0.041,0.189,0.07,0.297,0.07
		c0.122,0,0.229-0.037,0.328-0.088c0.023-0.014,0.045-0.027,0.068-0.041c0.037-0.027,0.074-0.054,0.105-0.086
		c0.041-0.044,0.074-0.088,0.098-0.13c0.006-0.009,0.009-0.018,0.014-0.026c0.034-0.07,0.049-0.125,0.05-0.13
		c0-0.003,0.001-0.005,0.001-0.007c0.893-6.316,2.458-9.201,3.059-10.061c0.096-0.123,0.215-0.268,0.338-0.381
		c0.067-0.056,0.137-0.104,0.207-0.146c0.301-0.16,0.646-0.107,0.588,0.231c-0.004,0.022,0,0.03,0,0.046
		c-0.355,1.663-0.844,4.217-0.988,6.049c-0.264,3.369,0.37,4.807,1.748,4.734c1.215-0.066,2.1-1.143,2.672-2.648
		c0.374,1.225,1.115,2.15,2.196,2.504c1.872,0.613,4.206-0.494,5.419-2.901l-0.223,2.032c-0.063,0.551,0.338,1.036,0.857,1.036
		c0.238,0,0.443-0.175,0.497-0.423l0.162-0.741c0.21-0.948,0.443-2.022,0.616-2.818c0.104-0.079,0.199-0.155,0.299-0.233
		c1.16,2.979,2.433,4.49,4.288,4.162c0.771-0.135,1.417-0.625,1.909-1.34C85.117,14.672,84.746,14.207,84.369,14.589 M33.026,15.214
		c-0.757-0.243-1.054-2.856-0.342-5.672c0.487-1.93,1.415-3.566,2.029-4.167c0.215-0.229,0.471-0.273,0.604-0.222
		c0.615,0.243,0.603,2.139-0.013,4.232c-0.042,0.143-0.09,0.293-0.153,0.475c-0.148,0.418,0.056,0.659,0.458,0.547
		c0.222-0.063,0.441-0.166,0.541-0.258c-0.039,0.182-0.077,0.367-0.127,0.55C35.358,13.08,33.986,15.523,33.026,15.214
		 M54.594,9.146c0.111-0.459,0.252-0.896,0.416-1.307c0.835-1.805,1.884-3.008,2.473-2.773c0.662,0.263,0.495,2.24-0.373,4.416
		c-0.783,1.965-1.924,3.249-2.624,3.285C54.252,11.757,54.269,10.492,54.594,9.146 M71.043,9.146
		c0.111-0.459,0.253-0.896,0.416-1.307c0.836-1.805,1.885-3.008,2.474-2.773c0.661,0.263,0.495,2.24-0.372,4.416
		c-0.784,1.965-1.924,3.249-2.625,3.285C70.701,11.757,70.719,10.492,71.043,9.146"/>
	<path fill="#FFFFFF" d="M73.119,2.761c0.65-0.469,1.153-1.248,0.938-1.73c-0.131-0.293-0.448-0.474-0.761-0.505
		c-0.322-0.032-0.576,0.107-0.7,0.545c-0.073,0.26-0.163,0.608-0.302,1.182C72.176,2.75,72.703,3.059,73.119,2.761"/>
	<path fill="#FFFFFF" d="M75.62,2.673c0.673-0.389,1.232-1.092,1.071-1.577c-0.098-0.295-0.388-0.501-0.686-0.561
		c-0.307-0.062-0.57,0.043-0.727,0.458c-0.094,0.246-0.224,0.601-0.404,1.109C74.709,2.57,75.191,2.92,75.62,2.673"/>
</g>
</svg>
